<svg version="1.1" viewBox="0.0 0.0 960.0 960.0" fill="none" stroke="none" stroke-linecap="square" stroke-miterlimit="10" xmlns:xlink="http://www.w3.org/1999/xlink" xmlns="http://www.w3.org/2000/svg"><clipPath id="p.0"><path d="m0 0l960.0 0l0 960.0l-960.0 0l0 -960.0z" clip-rule="nonzero"/></clipPath><g clip-path="url(#p.0)"><path fill="#000000" fill-opacity="0.0" d="m0 0l960.0 0l0 960.0l-960.0 0z" fill-rule="evenodd"/><path fill="#036cf2" d="m-0.002624672 479.9987l0 0c0 -265.09668 214.90332 -480.0 480.0 -480.0l0 0c127.303894 0 249.3938 50.57128 339.41125 140.58875c90.017456 90.017456 140.58875 212.10733 140.58875 339.41125l0 0c0 265.0967 -214.90332 479.99997 -480.0 479.99997l0 0c-265.09668 0 -480.0 -214.90326 -480.0 -479.99997z" fill-rule="evenodd"/><path stroke="#ff9900" stroke-width="1.0" stroke-linejoin="round" stroke-linecap="butt" d="m-0.002624672 479.9987l0 0c0 -265.09668 214.90332 -480.0 480.0 -480.0l0 0c127.303894 0 249.3938 50.57128 339.41125 140.58875c90.017456 90.017456 140.58875 212.10733 140.58875 339.41125l0 0c0 265.0967 -214.90332 479.99997 -480.0 479.99997l0 0c-265.09668 0 -480.0 -214.90326 -480.0 -479.99997z" fill-rule="evenodd"/><path fill="#f9ac03" d="m687.5571 402.0322c10.336182 0 19.7995 1.6997375 28.390015 5.099182c8.636475 3.3535461 16.009644 8.108185 22.119446 14.263947c6.1557617 6.109833 10.9104 13.483002 14.263916 22.119446c3.399475 8.590546 5.099182 18.191711 5.099182 28.803528l0 56.642334c0 10.611816 -1.699707 20.235962 -5.099182 28.872437c-3.3535156 8.590454 -8.1311035 15.963623 -14.332825 22.119446c-6.201721 6.1098022 -13.620789 10.864441 -22.257263 14.263916c-8.590515 3.3535156 -18.122742 5.0302734 -28.59674 5.0302734l-72.35321 0c-10.473999 0 -20.029236 -1.6767578 -28.66571 -5.0302734c-8.590515 -3.399475 -15.986572 -8.154114 -22.188293 -14.263916c-6.201721 -6.1558228 -11.002319 -13.528992 -14.401733 -22.119446c-3.3535156 -8.636475 -5.0302734 -18.26062 -5.0302734 -28.872437l0 -56.642334c0 -10.611816 1.6767578 -20.212982 5.0302734 -28.803528c3.399414 -8.636444 8.200012 -16.009613 14.401733 -22.119446c6.201721 -6.1557617 13.597778 -10.9104 22.188293 -14.263947c8.636475 -3.3994446 18.191711 -5.099182 28.66571 -5.099182zm-72.76666 -53.7482c-17.77826 0 -34.247253 3.1008606 -49.406982 9.302582c-15.159668 6.201721 -28.252197 14.792236 -39.277466 25.771576c-11.0252075 10.93338 -19.684662 24.02591 -25.978241 39.277527c-6.24765 15.205688 -9.37146 31.76654 -9.37146 49.682617l0 56.642334c0 18.053833 3.1238098 34.660645 9.37146 49.820435c6.293579 15.159729 14.952972 28.252258 25.978241 39.277527c11.025269 11.025269 24.117798 19.615784 39.277466 25.771545c15.159729 6.1098022 31.628723 9.164734 49.406982 9.164734l72.76666 0c17.778198 0 34.201294 -3.0549316 49.269104 -9.164734c15.113831 -6.1557617 28.18335 -14.746277 39.208557 -25.771545c11.025269 -11.025269 19.638733 -24.117798 25.840454 -39.277527c6.201721 -15.15979 9.302551 -31.766602 9.302551 -49.820435l0 -56.642334c0 -17.916077 -3.10083 -34.47693 -9.302551 -49.682617c-6.201721 -15.251617 -14.815186 -28.344147 -25.840454 -39.277527c-11.0252075 -10.97934 -24.094727 -19.569855 -39.208557 -25.771576c-15.06781 -6.201721 -31.490845 -9.302582 -49.269104 -9.302582z" fill-rule="evenodd"/><path fill="#f9ac03" d="m148.75273 355.5481l126.92827 148.63443l-126.51482 147.80753l73.18013 0l89.71802 -105.015686l90.13147 105.015686l72.97342 0l-126.72153 -147.80753l127.54843 -148.63443l-73.38687 0l-90.54492 105.84259l-90.54491 -105.84259z" fill-rule="evenodd"/><path fill="#f9ac03" d="m148.75276 282.32993l662.4882 0l0 46.236237l-662.4882 0z" fill-rule="evenodd"/><path fill="#f9ac03" d="m623.6268 435.60947l9.480347 0l0 130.17325l-9.480347 0z" fill-rule="evenodd"/><path fill="#f9ac03" d="m668.3433 435.60947l9.480286 0l0 130.17325l-9.480286 0z" fill-rule="evenodd"/><path fill="#f9ac03" d="m585.9142 527.7932l0 -9.480347l130.17322 0l0 9.480347z" fill-rule="evenodd"/><path fill="#f9ac03" d="m585.9142 483.07666l0 -9.480316l130.17322 0l0 9.480316z" fill-rule="evenodd"/></g></svg>