<svg version="1.1" viewBox="0.0 0.0 2772.48031496063 317.76115485564304" fill="none" stroke="none" stroke-linecap="square" stroke-miterlimit="10" xmlns:xlink="http://www.w3.org/1999/xlink" xmlns="http://www.w3.org/2000/svg"><clipPath id="p.0"><path d="m0 0l2772.4802 0l0 317.76117l-2772.4802 0l0 -317.76117z" clip-rule="nonzero"/></clipPath><g clip-path="url(#p.0)"><path fill="#000000" fill-opacity="0.0" d="m0 0l2772.4802 0l0 317.76117l-2772.4802 0z" fill-rule="evenodd"/><path fill="#f9ac03" d="m-0.08322126 21.403542l0 53.74819l118.65932 0l0 242.69376l53.748123 0l0 -242.69376l118.45261 0l0 -53.74819z" fill-rule="evenodd"/><path fill="#f9ac03" d="m325.09293 -0.09573517l0 48.580093l53.748108 0l0 -48.580093zm0 94.47278l0 223.46844l53.748108 0l0 -223.46844z" fill-rule="evenodd"/><path fill="#f9ac03" d="m501.01465 94.377045c-9.233643 0 -17.502594 1.1714325 -24.806824 3.514305c-7.3042297 2.342865 -13.758606 5.4437256 -19.363098 9.302567c-5.5585938 3.8588486 -10.313232 8.33786 -14.263916 13.43705c-3.9048157 5.0991898 -7.0975037 10.45105 -9.578186 16.055557c-2.4806824 5.5585785 -4.318268 11.163086 -5.5126343 16.813522c-1.1484985 5.6504517 -1.7226868 11.025284 -1.7226868 16.124466l0 72.766785c0 13.919403 2.5036316 25.679657 7.510956 35.280853c5.053192 9.555237 11.323822 17.341827 18.811829 23.359802c7.533905 5.971985 15.710999 10.267273 24.531189 12.885773c8.820221 2.6184998 16.951324 3.927765 24.393372 3.927765l145.74011 0l0 -53.7482l-145.32666 0c-7.1664124 0 -12.610138 -1.8605042 -16.331146 -5.581543c-3.7210388 -3.7210236 -5.581543 -9.095856 -5.581543 -16.12445l0 -72.35333c0 -7.4420624 1.8145447 -12.954697 5.4437256 -16.537918c3.6750488 -3.5832062 9.0269165 -5.374817 16.055511 -5.374817l145.74011 0l0 -53.748184z" fill-rule="evenodd"/><path fill="#f9ac03" d="m689.95996 145.43782l0 48.373367l193.90674 0l0 -48.373367z" fill-rule="evenodd"/><path fill="#f9ac03" d="m903.2987 21.403542l0 53.74819l118.6593 0l0 242.69376l53.74817 0l0 -242.69376l118.452515 0l0 -53.74819zm328.27698 72.9735l0 51.060776l118.039185 0c6.6151123 0 12.081787 2.0672455 16.400024 6.201721c4.3641357 4.1344757 6.5462646 9.716019 6.5462646 16.744629l0 75.04074c0 6.615158 -1.998291 12.127792 -5.994995 16.537888c-3.996704 4.4101257 -9.647095 6.6151733 -16.951294 6.6151733l-96.53992 0c-6.3394775 0 -11.829224 -1.9523926 -16.468994 -5.8571777c-4.593872 -3.950714 -6.890747 -9.440384 -6.890747 -16.468994c0 -6.615158 1.998291 -12.150772 5.994995 -16.606812c3.996582 -4.501999 9.647095 -6.7529755 16.951294 -6.7529755l96.95337 0l0 -51.2675l-96.95337 0c-13.505981 0 -24.9906 2.4806824 -34.45398 7.442047c-9.417358 4.96138 -17.066162 11.140137 -22.94629 18.53624c-5.8342285 7.350174 -10.060547 15.36647 -12.679077 24.048874c-2.6184082 8.682404 -3.9277344 16.744629 -3.9277344 24.186676c0 13.505951 2.480713 24.9906 7.4421387 34.45398c4.9613037 9.417389 11.117065 17.066193 18.467285 22.94635c7.396118 5.8341675 15.389404 10.060547 23.979858 12.679047c8.636475 2.6184998 16.675781 3.927765 24.117798 3.927765l96.95337 0c13.505859 0 24.96753 -2.4806824 34.38501 -7.4420776c9.463257 -4.9613647 17.11206 -11.117157 22.94629 -18.467316c5.880127 -7.396118 10.129395 -15.389465 12.747925 -23.97995c2.6185303 -8.636475 3.9277344 -16.675735 3.9277344 -24.117798l0 -75.45418c0 -13.505966 -2.4805908 -24.967636 -7.4420166 -34.38507c-4.9613037 -9.463341 -11.140137 -17.112122 -18.536255 -22.946335c-7.3500977 -5.880142 -15.343384 -10.129463 -23.979858 -12.747971c-8.590576 -2.6184998 -16.606812 -3.9277496 -24.048828 -3.9277496z" fill-rule="evenodd"/><path fill="#f9ac03" d="m1540.214 94.377045c-9.233643 0 -17.502686 1.1714325 -24.806885 3.514305c-7.304199 2.342865 -13.758545 5.4437256 -19.363037 9.302567c-5.5585938 3.8588486 -10.313232 8.33786 -14.264038 13.43705c-3.904663 5.0991898 -7.097412 10.45105 -9.578125 16.055557c-2.480713 5.5585785 -4.3182373 11.163086 -5.5126953 16.813522c-1.1484375 5.6504517 -1.7226562 11.025284 -1.7226562 16.124466l0 72.766785c0 13.919403 2.503662 25.679657 7.5109863 35.280853c5.0532227 9.555237 11.323853 17.341827 18.81189 23.359802c7.5338135 5.971985 15.7109375 10.267273 24.531128 12.885773c8.82019 2.6184998 16.951294 3.927765 24.393433 3.927765l145.74011 0l0 -53.7482l-145.32666 0c-7.166504 0 -12.6102295 -1.8605042 -16.331177 -5.581543c-3.7210693 -3.7210236 -5.581543 -9.095856 -5.581543 -16.12445l0 -72.35333c0 -7.4420624 1.8145752 -12.954697 5.4437256 -16.537918c3.6750488 -3.5832062 9.026855 -5.374817 16.055542 -5.374817l145.74011 0l0 -53.748184z" fill-rule="evenodd"/><path fill="#f9ac03" d="m1729.1593 145.43782l0 48.373367l193.90662 0l0 -48.373367z" fill-rule="evenodd"/><path fill="#f9ac03" d="m2410.9336 148.12523c7.0285645 0 12.40332 1.7916107 16.124268 5.374817c3.7211914 3.5832214 5.581543 9.095856 5.581543 16.537918l0 72.35333c0 7.028595 -1.7915039 12.403427 -5.374756 16.12445c-3.583252 3.7210388 -9.026855 5.581543 -16.331055 5.581543l-96.54004 0c-7.16626 0 -12.610107 -1.8605042 -16.331055 -5.581543c-3.7209473 -3.7210236 -5.581543 -9.095856 -5.581543 -16.12445l0 -72.766785c0 -7.02861 1.8605957 -12.357483 5.581543 -15.986649c3.7209473 -3.6750793 9.164795 -5.5126343 16.331055 -5.5126343zm-468.43567 -126.72169l0 53.74819l118.6593 0l0 242.69376l53.74829 0l0 -242.69376l118.45239 0l0 -53.74819zm371.4823 72.9735c-7.4421387 0 -15.573242 1.3092499 -24.39331 3.9277496c-8.8203125 2.6185074 -16.997314 6.936737 -24.53125 12.954697c-7.488037 5.972023 -13.758789 13.758621 -18.811768 23.359787c-5.0075684 9.555237 -7.5109863 21.223648 -7.5109863 35.005234l0 72.766785c0 13.919403 2.503418 25.679657 7.5109863 35.280853c5.0529785 9.555237 11.32373 17.341827 18.811768 23.359802c7.5339355 5.971985 15.7109375 10.267273 24.53125 12.885773c8.820068 2.6184998 16.951172 3.927765 24.39331 3.927765l96.95337 0c5.099121 0 10.496826 -0.57424927 16.19336 -1.7227173c5.7421875 -1.194397 11.392578 -3.031952 16.951172 -5.5126343c5.604492 -2.4806824 10.956543 -5.6734314 16.055664 -9.578186c5.099121 -3.9507446 9.578125 -8.705383 13.437012 -14.263947c3.8588867 -5.6045227 6.959717 -12.081879 9.30249 -19.432037c2.3430176 -7.3961487 3.5144043 -15.711014 3.5144043 -24.944672l0 -72.766785c0 -7.5798798 -1.3552246 -15.7799225 -4.065674 -24.600128c-2.6643066 -8.820221 -6.959717 -16.97432 -12.885742 -24.462326c-5.9260254 -7.533928 -13.7126465 -13.781586 -23.35962 -18.742958c-9.647217 -4.9613724 -21.361572 -7.4420547 -35.143066 -7.4420547z" fill-rule="evenodd"/><path fill="#f9ac03" d="m2601.5327 94.377045c-13.5061035 0 -24.990723 2.4806824 -34.4541 7.4420547c-9.417236 4.9613724 -17.065918 11.140121 -22.94629 18.53624c-5.8339844 7.3501816 -10.060547 15.343498 -12.678955 23.979958c-2.6184082 8.59053 -3.9277344 16.606812 -3.9277344 24.048874l0 75.45418c0 13.505951 2.480713 24.9906 7.4421387 34.45398c4.9611816 9.417389 11.1171875 17.066193 18.467285 22.94635c7.395996 5.8341675 15.389404 10.060547 23.979736 12.679047c8.636719 2.6184998 16.675781 3.927765 24.11792 3.927765l96.95337 0l0 -51.267517l-96.54004 0c-6.61499 0 -12.173584 -1.9983215 -16.675537 -5.994995c-4.4560547 -3.996643 -6.684082 -9.578201 -6.684082 -16.744629l0 -75.04074c0 -6.615158 1.998291 -12.150757 5.994873 -16.606812c3.996582 -4.5019684 9.647217 -6.7529755 16.951416 -6.7529755l96.95337 0c6.3393555 0 11.737305 1.9983368 16.19336 5.994995c4.501953 3.9966583 6.7529297 9.509293 6.7529297 16.537903c0 6.615158 -1.998291 12.173737 -5.995117 16.67572c-3.996582 4.4560547 -9.646973 6.684067 -16.951172 6.684067l-96.95337 0l0 51.06079l96.95337 0c13.505859 0 24.96753 -2.4806976 34.38501 -7.4420624c9.463379 -4.96138 17.11206 -11.117157 22.94629 -18.46733c5.880127 -7.3961334 10.129395 -15.38945 12.747803 -23.979965c2.6186523 -8.636444 3.9277344 -16.67572 3.9277344 -24.117767c0 -13.505966 -2.4804688 -24.967636 -7.4418945 -34.38507c-4.961426 -9.463341 -11.140137 -17.112122 -18.536377 -22.946335c-7.3500977 -5.880142 -15.343262 -10.129463 -23.979736 -12.747971c-8.590576 -2.6184998 -16.606934 -3.9277496 -24.048828 -3.9277496z" fill-rule="evenodd"/></g></svg>